<svg width="283" height="298" viewBox="0 0 283 298" fill="none" xmlns="http://www.w3.org/2000/svg">
<path d="M0 297.238V292.748L11.225 288.707C17.2117 286.312 21.8513 283.469 25.144 280.176C28.4367 276.584 31.1307 271.645 33.226 265.359L125.72 0H163.885L255.032 267.155C257.427 273.74 260.121 278.829 263.114 282.421C266.107 285.714 270.747 288.557 277.033 290.952L282.421 292.748V297.238H168.375V292.748L175.11 290.503C181.396 288.108 185.138 284.816 186.335 280.625C187.832 276.135 187.682 270.897 185.886 264.91L164.783 200.254H65.105L43.553 263.563C41.4577 270.148 40.7093 275.387 41.308 279.278C42.206 283.169 45.798 286.312 52.084 288.707L61.962 292.748V297.238H0ZM68.248 191.274H162.089L116.74 51.635L68.248 191.274Z" fill="#291400"/>
</svg>
