<svg width="512" height="512" viewBox="0 0 512 512" fill="none" xmlns="http://www.w3.org/2000/svg">
<path d="M-7.15775 -2.6759L45.4738 -33.0627L98.1054 -2.6759L150.737 -33.0627L203.369 -2.6759L256 -33.0627L308.632 -2.6759L361.263 -33.0627L413.895 -2.6759L466.527 -33.0627L519.158 -2.6759M-7.1593 -2.6759V58.0978L45.4723 88.4847M-7.1593 -2.6759L45.4723 27.711M-7.1593 -2.6759L45.4723 -33.0627L98.1039 -2.6759M98.1039 -2.6759L45.4723 27.711M98.1039 -2.6759V58.0978M98.1039 -2.6759L150.735 27.711M98.1039 -2.6759L150.735 -33.0627L203.367 -2.6759M45.4723 27.711V88.4847M45.4723 88.4847L98.1039 58.0978M98.1039 58.0978L150.735 88.4847M203.367 -2.6759L150.735 27.711M203.367 -2.6759V58.0978M203.367 -2.6759L255.999 27.711M203.367 -2.6759L255.999 -33.0627L308.63 -2.6759M150.735 27.711V88.4847M150.735 88.4847L203.367 58.0978M203.367 58.0978L255.999 88.4847M308.63 -2.6759L255.999 27.711M308.63 -2.6759V58.0978M308.63 -2.6759L361.262 27.711M308.63 -2.6759L361.262 -33.0627L413.893 -2.6759M255.999 27.711V88.4847M255.999 88.4847L308.63 58.0978M308.63 58.0978L361.262 88.4847M413.893 -2.6759L361.262 27.711M413.893 -2.6759V58.0978M413.893 -2.6759L466.525 27.711M413.893 -2.6759L466.525 -33.0627L519.156 -2.6759M361.262 27.711V88.4847M361.262 88.4847L413.893 58.0978M413.893 58.0978L466.525 88.4847M519.156 -2.6759L466.525 27.711M519.156 -2.6759V58.0978L466.525 88.4847M466.525 27.711V88.4847M-7.15775 58.0978L45.4738 88.4847M45.4738 88.4847L-7.15775 118.872V179.645L45.4738 149.258M45.4738 88.4847V149.258M45.4738 88.4847L98.1054 118.872M45.4738 88.4847L98.1054 58.0978L150.737 88.4847M45.4738 149.258L98.1054 179.645M150.737 88.4847L98.1054 118.872M150.737 88.4847V149.258M150.737 88.4847L203.369 118.872M150.737 88.4847L203.369 58.0978L256 88.4847M98.1054 118.872V179.645M98.1054 179.645L150.737 149.258M150.737 149.258L203.369 179.645M256 88.4847L203.369 118.872M256 88.4847V149.258M256 88.4847L308.632 118.872M256 88.4847L308.632 58.0978L361.263 88.4847M203.369 118.872V179.645M203.369 179.645L256 149.258M256 149.258L308.632 179.645M361.263 88.4847L308.632 118.872M361.263 88.4847V149.258M361.263 88.4847L413.895 118.872M361.263 88.4847L413.895 58.0978L466.527 88.4847M308.632 118.872V179.645M308.632 179.645L361.263 149.258M361.263 149.258L413.895 179.645M466.527 88.4847L413.895 118.872M466.527 88.4847V149.258M466.527 88.4847L519.158 118.872V179.645L466.527 149.258M466.527 88.4847L519.158 58.0978M413.895 118.872V179.645M413.895 179.645L466.527 149.258M-7.1593 179.645V240.419L45.4723 270.806M-7.1593 179.645L45.4723 210.032M-7.1593 179.645L45.4723 149.258L98.1039 179.645M98.1039 179.645L45.4723 210.032M98.1039 179.645V240.419M98.1039 179.645L150.735 210.032M98.1039 179.645L150.735 149.258L203.367 179.645M45.4723 210.032V270.806M45.4723 270.806L98.1039 240.419M98.1039 240.419L150.735 270.806M203.367 179.645L150.735 210.032M203.367 179.645V240.419M203.367 179.645L255.999 210.032M203.367 179.645L255.999 149.258L308.63 179.645M150.735 210.032V270.806M150.735 270.806L203.367 240.419M203.367 240.419L255.999 270.806M308.63 179.645L255.999 210.032M308.63 179.645V240.419M308.63 179.645L361.262 210.032M308.63 179.645L361.262 149.258L413.893 179.645M255.999 210.032V270.806M255.999 270.806L308.63 240.419M308.63 240.419L361.262 270.806M413.893 179.645L361.262 210.032M413.893 179.645V240.419M413.893 179.645L466.525 210.032M413.893 179.645L466.525 149.258L519.156 179.645M361.262 210.032V270.806M361.262 270.806L413.893 240.419M413.893 240.419L466.525 270.806M519.156 179.645L466.525 210.032M519.156 179.645V240.419L466.525 270.806M466.525 210.032V270.806M-7.15775 240.419L45.4738 270.806M45.4738 270.806L-7.15775 301.193V361.966L45.4738 331.58M45.4738 270.806V331.58M45.4738 270.806L98.1054 301.193M45.4738 270.806L98.1054 240.419L150.737 270.806M45.4738 331.58L98.1054 361.966M150.737 270.806L98.1054 301.193M150.737 270.806V331.58M150.737 270.806L203.369 301.193M150.737 270.806L203.369 240.419L256 270.806M98.1054 301.193V361.966M98.1054 361.966L150.737 331.58M150.737 331.58L203.369 361.966M256 270.806L203.369 301.193M256 270.806V331.58M256 270.806L308.632 301.193M256 270.806L308.632 240.419L361.263 270.806M203.369 301.193V361.966M203.369 361.966L256 331.58M256 331.58L308.632 361.966M361.263 270.806L308.632 301.193M361.263 270.806V331.58M361.263 270.806L413.895 301.193M361.263 270.806L413.895 240.419L466.527 270.806M308.632 301.193V361.966M308.632 361.966L361.263 331.58M361.263 331.58L413.895 361.966M466.527 270.806L413.895 301.193M466.527 270.806V331.58M466.527 270.806L519.158 301.193V361.966L466.527 331.58M466.527 270.806L519.158 240.419M413.895 301.193V361.966M413.895 361.966L466.527 331.58M-7.1593 361.966V422.74L45.4723 453.127M-7.1593 361.966L45.4723 392.353M-7.1593 361.966L45.4723 331.58L98.1039 361.966M98.1039 361.966L45.4723 392.353M98.1039 361.966V422.74M98.1039 361.966L150.735 392.353M98.1039 361.966L150.735 331.58L203.367 361.966M45.4723 392.353V453.127M45.4723 453.127L98.1039 422.74M98.1039 422.74L150.735 453.127M203.367 361.966L150.735 392.353M203.367 361.966V422.74M203.367 361.966L255.999 392.353M203.367 361.966L255.999 331.58L308.63 361.966M150.735 392.353V453.127M150.735 453.127L203.367 422.74M203.367 422.74L255.999 453.127M308.63 361.966L255.999 392.353M308.63 361.966V422.74M308.63 361.966L361.262 392.353M308.63 361.966L361.262 331.58L413.893 361.966M255.999 392.353V453.127M255.999 453.127L308.63 422.74M308.63 422.74L361.262 453.127M413.893 361.966L361.262 392.353M413.893 361.966V422.74M413.893 361.966L466.525 392.353M413.893 361.966L466.525 331.58L519.156 361.966M361.262 392.353V453.127M361.262 453.127L413.893 422.74M413.893 422.74L466.525 453.127M519.156 361.966L466.525 392.353M519.156 361.966V422.74L466.525 453.127M466.525 392.353V453.127M-7.15775 422.74L45.4738 453.127M45.4738 453.127L-7.15775 483.514V544.288L45.4738 513.901M45.4738 453.127V513.901M45.4738 453.127L98.1054 483.514M45.4738 453.127L98.1054 422.74L150.737 453.127M45.4738 513.901L98.1054 544.288M150.737 453.127L98.1054 483.514M150.737 453.127V513.901M150.737 453.127L203.369 483.514M150.737 453.127L203.369 422.74L256 453.127M98.1054 483.514V544.288M98.1054 544.288L150.737 513.901M150.737 513.901L203.369 544.288M256 453.127L203.369 483.514M256 453.127V513.901M256 453.127L308.632 483.514M256 453.127L308.632 422.74L361.263 453.127M203.369 483.514V544.288M203.369 544.288L256 513.901M256 513.901L308.632 544.288M361.263 453.127L308.632 483.514M361.263 453.127V513.901M361.263 453.127L413.895 483.514M361.263 453.127L413.895 422.74L466.527 453.127M308.632 483.514V544.288M308.632 544.288L361.263 513.901M361.263 513.901L413.895 544.288M466.527 453.127L413.895 483.514M466.527 453.127V513.901M466.527 453.127L519.158 483.514V544.288L466.527 513.901M466.527 453.127L519.158 422.74M413.895 483.514V544.288M413.895 544.288L466.527 513.901M-7.1593 544.288L45.4723 513.901L98.1039 544.288L150.735 513.901L203.367 544.288L255.999 513.901L308.63 544.288L361.262 513.901L413.893 544.288L466.525 513.901L519.156 544.288" stroke="white" stroke-width="2.66667"/>
</svg>
